<?xml version="1.0" encoding="UTF-8" ?>
<svg
  id="Layer_1"
  data-name="Layer 1"
  xmlns="http://www.w3.org/2000/svg"
  viewBox="0 0 347.62 320.48"
>
  <defs>
    <style>
      .cls-1 {
        stroke-width: 0px;
      }
    </style>
  </defs>
  <path
    class="cls-1"
    d="m261.5,251.61c-.47,1.5-1.03,3.13-3,2.63-1.74-.44-2.19-2.05-2.01-3.68.16-1.41,1.22-2.2,2.55-2.12,1.85.11,2.61,1.35,2.46,3.17Z"
  />
  <path
    class="cls-1"
    d="m301.15,66.18c-23.72-16.94-54.27-27.39-91.64-31.36-3.95-.42-7.4,2.68-7.4,6.66v49.58c0,3.41,2.58,6.28,5.97,6.64,22.88,2.4,41.48,7.37,55.8,14.91,20.97,11.06,31.47,32.43,31.47,64.12s-10.5,53.62-31.47,64.68c-20.99,11.06-51.16,16.6-90.54,16.6s-68.93-5.54-89.58-16.6c-20.65-11.06-30.98-32.61-30.98-64.68s10.4-53.06,31.22-64.12c14.3-7.59,32.81-12.57,55.54-14.95,3.39-.36,5.97-3.23,5.97-6.64v-49.62c0-3.97-3.44-7.07-7.39-6.66-37.49,3.9-68.11,14.38-91.88,31.43C15.42,88.28,0,125.14,0,176.73s15.34,88.45,46,110.57c30.66,22.12,73.09,33.18,127.34,33.18s97.22-11.06,128.05-33.18c30.83-22.12,46.23-58.96,46.23-110.57s-15.49-88.45-46.47-110.55Z"
  />
  <rect
    class="cls-1"
    x="152.09"
    width="41.84"
    height="124.98"
    rx="4.78"
    ry="4.78"
  />
</svg>
